<svg width="759" height="301" viewBox="0 0 759 301" fill="none" xmlns="http://www.w3.org/2000/svg">
<g filter="url(#filter0_d_4_2)">
<path d="M149.5 176.5C178.771 176.5 202.5 200.229 202.5 229.5C202.5 258.771 178.771 282.5 149.5 282.5C120.229 282.5 96.5 258.771 96.5 229.5C96.5 200.229 120.229 176.5 149.5 176.5ZM631.5 176.5C660.771 176.5 684.5 200.229 684.5 229.5C684.5 258.771 660.771 282.5 631.5 282.5C602.229 282.5 578.5 258.771 578.5 229.5C578.5 200.229 602.229 176.5 631.5 176.5ZM149.5 178.5C121.333 178.5 98.5 201.333 98.5 229.5C98.5 257.667 121.333 280.5 149.5 280.5C177.667 280.5 200.5 257.667 200.5 229.5C200.5 201.333 177.667 178.5 149.5 178.5ZM631.5 178.5C603.333 178.5 580.5 201.333 580.5 229.5C580.5 257.667 603.333 280.5 631.5 280.5C659.667 280.5 682.5 257.667 682.5 229.5C682.5 201.333 659.667 178.5 631.5 178.5ZM92.5 229.5C92.5 230.052 92.0523 230.5 91.5 230.5H14.5C13.3954 230.5 12.5 229.605 12.5 228.5H91.5C92.0523 228.5 92.5 228.948 92.5 229.5ZM578.5 229.5C578.5 230.052 578.052 230.5 577.5 230.5H207.5C206.948 230.5 206.5 230.052 206.5 229.5C206.5 228.948 206.948 228.5 207.5 228.5H577.5C578.052 228.5 578.5 228.948 578.5 229.5ZM732.5 229.5C732.5 230.052 732.052 230.5 731.5 230.5H685.5C684.948 230.5 684.5 230.052 684.5 229.5C684.5 228.948 684.948 228.5 685.5 228.5H731.5C732.052 228.5 732.5 228.948 732.5 229.5ZM733.501 108.5C734.019 108.308 734.596 108.577 734.786 109.095C743.764 133.542 747.818 152.341 747.579 170.525C747.341 188.68 742.824 206.141 734.786 227.908C734.595 228.426 734.018 228.693 733.501 228.5C732.983 228.307 732.721 227.728 732.912 227.21C740.916 205.533 745.345 188.321 745.579 170.499C745.813 152.652 741.841 134.111 732.911 109.792C732.72 109.273 732.983 108.692 733.501 108.5ZM12.5 228.5C11.3954 228.5 10.5 227.605 10.5 226.5V110.5C10.5 109.395 11.3954 108.5 12.5 108.5V228.5ZM284.5 102.5C284.5 105.814 281.814 108.5 278.5 108.5H12.5C12.5 107.395 13.3954 106.5 14.5 106.5H276.5C279.814 106.5 282.5 103.814 282.5 100.5V6.5C282.5 5.39543 283.395 4.5 284.5 4.5V102.5ZM558.334 102.747C559.25 105.015 561.451 106.5 563.897 106.5H731.5C732.052 106.5 732.5 106.948 732.5 107.5C732.5 108.052 732.052 108.5 731.5 108.5H562.548C560.102 108.5 557.9 107.015 556.984 104.747L516.5 4.5C517.524 4.08633 518.69 4.58129 519.103 5.6055L558.334 102.747ZM516.5 4.5H284.5C284.5 3.39543 285.395 2.5 286.5 2.5H514.5C515.605 2.5 516.5 3.39543 516.5 4.5Z" fill="#F0C93A"/>
<path d="M149.5 176.5V174V174V176.5ZM149.5 282.5V285V285V282.5ZM149.5 178.5V176V176V178.5ZM149.5 280.5V283V283V280.5ZM747.579 170.525L750.079 170.558V170.558L747.579 170.525ZM733.501 228.5L734.373 226.157L734.372 226.157L733.501 228.5ZM745.579 170.499L748.079 170.532V170.532L745.579 170.499ZM733.501 108.5L734.369 110.844L734.37 110.844L733.501 108.5ZM519.103 5.6055L516.785 6.54166L519.103 5.6055ZM556.984 104.747L559.302 103.811L556.984 104.747ZM732.911 109.792L735.257 108.93L732.911 109.792ZM732.912 227.21L735.258 228.076L732.912 227.21ZM734.786 227.908L737.131 228.774L734.786 227.908ZM734.786 109.095L737.133 108.233L734.786 109.095ZM558.334 102.747L556.016 103.683L558.334 102.747ZM149.5 176.5V179C177.39 179 200 201.61 200 229.5H202.5H205C205 198.848 180.152 174 149.5 174V176.5ZM202.5 229.5H200C200 257.39 177.39 280 149.5 280V282.5V285C180.152 285 205 260.152 205 229.5H202.5ZM149.5 282.5V280C121.61 280 99 257.39 99 229.5H96.5H94C94 260.152 118.848 285 149.5 285V282.5ZM96.5 229.5H99C99 201.61 121.61 179 149.5 179V176.5V174C118.848 174 94 198.848 94 229.5H96.5ZM631.5 176.5V179C659.39 179 682 201.61 682 229.5H684.5H687C687 198.848 662.152 174 631.5 174V176.5ZM684.5 229.5H682C682 257.39 659.39 280 631.5 280V282.5V285C662.152 285 687 260.152 687 229.5H684.5ZM631.5 282.5V280C603.61 280 581 257.39 581 229.5H578.5H576C576 260.152 600.848 285 631.5 285V282.5ZM578.5 229.5H581C581 201.61 603.61 179 631.5 179V176.5V174C600.848 174 576 198.848 576 229.5H578.5ZM149.5 178.5V176C119.953 176 96 199.953 96 229.5H98.5H101C101 202.714 122.714 181 149.5 181V178.5ZM98.5 229.5H96C96 259.047 119.953 283 149.5 283V280.5V278C122.714 278 101 256.286 101 229.5H98.5ZM149.5 280.5V283C179.047 283 203 259.047 203 229.5H200.5H198C198 256.286 176.286 278 149.5 278V280.5ZM200.5 229.5H203C203 199.953 179.047 176 149.5 176V178.5V181C176.286 181 198 202.714 198 229.5H200.5ZM631.5 178.5V176C601.953 176 578 199.953 578 229.5H580.5H583C583 202.714 604.714 181 631.5 181V178.5ZM580.5 229.5H578C578 259.047 601.953 283 631.5 283V280.5V278C604.714 278 583 256.286 583 229.5H580.5ZM631.5 280.5V283C661.047 283 685 259.047 685 229.5H682.5H680C680 256.286 658.286 278 631.5 278V280.5ZM682.5 229.5H685C685 199.953 661.047 176 631.5 176V178.5V181C658.286 181 680 202.714 680 229.5H682.5ZM91.5 230.5V228H14.5V230.5V233H91.5V230.5ZM12.5 228.5V231H91.5V228.5V226H12.5V228.5ZM577.5 230.5V228H207.5V230.5V233H577.5V230.5ZM207.5 228.5V231H577.5V228.5V226H207.5V228.5ZM731.5 230.5V228H685.5V230.5V233H731.5V230.5ZM685.5 228.5V231H731.5V228.5V226H685.5V228.5ZM734.786 109.095L732.439 109.957C741.36 134.249 745.312 152.728 745.079 170.493L747.579 170.525L750.079 170.558C750.323 151.955 746.167 132.835 737.133 108.233L734.786 109.095ZM747.579 170.525L745.079 170.493C744.846 188.233 740.438 205.385 732.441 227.042L734.786 227.908L737.131 228.774C745.21 206.897 749.835 189.126 750.079 170.558L747.579 170.525ZM732.912 227.21L735.258 228.076C743.302 206.289 747.839 188.768 748.079 170.532L745.579 170.499L743.079 170.466C742.851 187.875 738.53 204.777 730.567 226.344L732.912 227.21ZM745.579 170.499L748.079 170.532C748.319 152.265 744.245 133.404 735.257 108.93L732.911 109.792L730.564 110.653C739.437 134.819 743.308 153.038 743.079 170.466L745.579 170.499ZM10.5 226.5H13V110.5H10.5H8V226.5H10.5ZM12.5 108.5H10V228.5H12.5H15V108.5H12.5ZM278.5 108.5V106H12.5V108.5V111H278.5V108.5ZM14.5 106.5V109H276.5V106.5V104H14.5V106.5ZM282.5 100.5H285V6.5H282.5H280V100.5H282.5ZM284.5 4.5H282V102.5H284.5H287V4.5H284.5ZM563.897 106.5V109H731.5V106.5V104H563.897V106.5ZM731.5 108.5V106H562.548V108.5V111H731.5V108.5ZM556.984 104.747L559.302 103.811L518.818 3.56384L516.5 4.5L514.182 5.43616L554.666 105.683L556.984 104.747ZM519.103 5.6055L516.785 6.54166L556.016 103.683L558.334 102.747L560.652 101.811L521.422 4.66934L519.103 5.6055ZM516.5 4.5V2H284.5V4.5V7H516.5V4.5ZM286.5 2.5V5H514.5V2.5V0H286.5V2.5ZM514.5 2.5V5C514.224 5 514 4.77614 514 4.5H516.5H519C519 2.01472 516.985 0 514.5 0V2.5ZM284.5 4.5H287C287 4.77614 286.776 5 286.5 5V2.5V0C284.015 0 282 2.01472 282 4.5H284.5ZM516.5 4.5L517.436 6.81806C517.18 6.92149 516.889 6.79774 516.785 6.54166L519.103 5.6055L521.422 4.66934C520.491 2.36483 517.868 1.25117 515.564 2.18194L516.5 4.5ZM562.548 108.5V106C561.121 106 559.837 105.134 559.302 103.811L556.984 104.747L554.666 105.683C555.964 108.896 559.082 111 562.548 111V108.5ZM732.5 107.5H730C730 106.672 730.672 106 731.5 106V108.5V111C733.433 111 735 109.433 735 107.5H732.5ZM276.5 106.5V109C281.194 109 285 105.194 285 100.5H282.5H280C280 102.433 278.433 104 276.5 104V106.5ZM10.5 110.5H13C13 110.776 12.7761 111 12.5 111V108.5V106C10.0147 106 8 108.015 8 110.5H10.5ZM12.5 228.5V226C12.7761 226 13 226.224 13 226.5H10.5H8C8 228.985 10.0147 231 12.5 231V228.5ZM732.911 109.792L735.257 108.93C735.534 109.685 735.163 110.55 734.369 110.844L733.501 108.5L732.633 106.156C730.802 106.834 729.905 108.861 730.564 110.653L732.911 109.792ZM733.501 228.5L734.372 226.157C735.162 226.451 735.538 227.316 735.258 228.076L732.912 227.21L730.567 226.344C729.904 228.139 730.804 230.164 732.63 230.843L733.501 228.5ZM734.786 227.908L732.441 227.042C732.726 226.271 733.585 225.864 734.373 226.157L733.501 228.5L732.629 230.843C734.451 231.521 736.464 230.581 737.131 228.774L734.786 227.908ZM734.786 109.095L737.133 108.233C736.47 106.428 734.458 105.479 732.632 106.156L733.501 108.5L734.37 110.844C733.579 111.137 732.722 110.726 732.439 109.957L734.786 109.095ZM684.5 229.5H687C687 230.328 686.328 231 685.5 231V228.5V226C683.567 226 682 227.567 682 229.5H684.5ZM685.5 230.5V228C686.328 228 687 228.672 687 229.5H684.5H682C682 231.433 683.567 233 685.5 233V230.5ZM731.5 230.5V233C733.433 233 735 231.433 735 229.5H732.5H730C730 228.672 730.672 228 731.5 228V230.5ZM577.5 228.5V231C576.672 231 576 230.328 576 229.5H578.5H581C581 227.567 579.433 226 577.5 226V228.5ZM731.5 106.5V109C730.672 109 730 108.328 730 107.5H732.5H735C735 105.567 733.433 104 731.5 104V106.5ZM206.5 229.5H209C209 230.328 208.328 231 207.5 231V228.5V226C205.567 226 204 227.567 204 229.5H206.5ZM577.5 230.5V233C579.433 233 581 231.433 581 229.5H578.5H576C576 228.672 576.672 228 577.5 228V230.5ZM282.5 6.5H285C285 6.77614 284.776 7 284.5 7V4.5V2C282.015 2 280 4.01472 280 6.5H282.5ZM91.5 228.5V231C90.6716 231 90 230.328 90 229.5H92.5H95C95 227.567 93.433 226 91.5 226V228.5ZM12.5 108.5H15C15 108.776 14.7761 109 14.5 109V106.5V104C12.0147 104 10 106.015 10 108.5H12.5ZM14.5 230.5V228C14.7761 228 15 228.224 15 228.5H12.5H10C10 230.985 12.0147 233 14.5 233V230.5ZM563.897 106.5V104C562.47 104 561.186 103.134 560.652 101.811L558.334 102.747L556.016 103.683C557.313 106.896 560.432 109 563.897 109V106.5ZM207.5 230.5V228C208.328 228 209 228.672 209 229.5H206.5H204C204 231.433 205.567 233 207.5 233V230.5ZM731.5 228.5V231C730.672 231 730 230.328 730 229.5H732.5H735C735 227.567 733.433 226 731.5 226V228.5ZM278.5 108.5V111C283.194 111 287 107.194 287 102.5H284.5H282C282 104.433 280.433 106 278.5 106V108.5ZM91.5 230.5V233C93.433 233 95 231.433 95 229.5H92.5H90C90 228.672 90.6716 228 91.5 228V230.5Z" fill="#F0C93A"/>
</g>
<defs>
<filter id="filter0_d_4_2" x="0" y="0" width="758.089" height="301" filterUnits="userSpaceOnUse" color-interpolation-filters="sRGB">
<feFlood flood-opacity="0" result="BackgroundImageFix"/>
<feColorMatrix in="SourceAlpha" type="matrix" values="0 0 0 0 0 0 0 0 0 0 0 0 0 0 0 0 0 0 127 0" result="hardAlpha"/>
<feOffset dy="8"/>
<feGaussianBlur stdDeviation="4"/>
<feComposite in2="hardAlpha" operator="out"/>
<feColorMatrix type="matrix" values="0 0 0 0 0 0 0 0 0 0 0 0 0 0 0 0 0 0 0.25 0"/>
<feBlend mode="normal" in2="BackgroundImageFix" result="effect1_dropShadow_4_2"/>
<feBlend mode="normal" in="SourceGraphic" in2="effect1_dropShadow_4_2" result="shape"/>
</filter>
</defs>
</svg>
