<svg width="769" height="311" viewBox="0 0 769 311" fill="none" xmlns="http://www.w3.org/2000/svg">
<g filter="url(#filter0_d_4_2)">
<path d="M154.5 181.5C183.771 181.5 207.5 205.229 207.5 234.5C207.5 263.771 183.771 287.5 154.5 287.5C125.229 287.5 101.5 263.771 101.5 234.5C101.5 205.229 125.229 181.5 154.5 181.5ZM636.5 181.5C665.771 181.5 689.5 205.229 689.5 234.5C689.5 263.771 665.771 287.5 636.5 287.5C607.229 287.5 583.5 263.771 583.5 234.5C583.5 205.229 607.229 181.5 636.5 181.5ZM154.5 183.5C126.333 183.5 103.5 206.333 103.5 234.5C103.5 262.667 126.333 285.5 154.5 285.5C182.667 285.5 205.5 262.667 205.5 234.5C205.5 206.333 182.667 183.5 154.5 183.5ZM636.5 183.5C608.333 183.5 585.5 206.333 585.5 234.5C585.5 262.667 608.333 285.5 636.5 285.5C664.667 285.5 687.5 262.667 687.5 234.5C687.5 206.333 664.667 183.5 636.5 183.5ZM97.5 234.5C97.5 235.052 97.0523 235.5 96.5 235.5H19.5C18.3954 235.5 17.5 234.605 17.5 233.5H96.5C97.0523 233.5 97.5 233.948 97.5 234.5ZM583.5 234.5C583.5 235.052 583.052 235.5 582.5 235.5H212.5C211.948 235.5 211.5 235.052 211.5 234.5C211.5 233.948 211.948 233.5 212.5 233.5H582.5C583.052 233.5 583.5 233.948 583.5 234.5ZM737.5 234.5C737.5 235.052 737.052 235.5 736.5 235.5H690.5C689.948 235.5 689.5 235.052 689.5 234.5C689.5 233.948 689.948 233.5 690.5 233.5H736.5C737.052 233.5 737.5 233.948 737.5 234.5ZM738.501 113.5C739.019 113.308 739.596 113.577 739.786 114.095C748.764 138.542 752.818 157.341 752.579 175.525C752.341 193.68 747.824 211.141 739.786 232.908C739.595 233.426 739.018 233.693 738.501 233.5C737.983 233.307 737.721 232.728 737.912 232.21C745.916 210.533 750.345 193.321 750.579 175.499C750.813 157.652 746.841 139.111 737.911 114.792C737.72 114.273 737.983 113.692 738.501 113.5ZM17.5 233.5C16.3954 233.5 15.5 232.605 15.5 231.5V115.5C15.5 114.395 16.3954 113.5 17.5 113.5V233.5ZM289.5 107.5C289.5 110.814 286.814 113.5 283.5 113.5H17.5C17.5 112.395 18.3954 111.5 19.5 111.5H281.5C284.814 111.5 287.5 108.814 287.5 105.5V11.5C287.5 10.3954 288.395 9.5 289.5 9.5V107.5ZM563.334 107.747C564.25 110.015 566.451 111.5 568.897 111.5H736.5C737.052 111.5 737.5 111.948 737.5 112.5C737.5 113.052 737.052 113.5 736.5 113.5H567.548C565.102 113.5 562.9 112.015 561.984 109.747L521.5 9.5C522.524 9.08633 523.69 9.58129 524.103 10.6055L563.334 107.747ZM521.5 9.5H289.5C289.5 8.39543 290.395 7.5 291.5 7.5H519.5C520.605 7.5 521.5 8.39543 521.5 9.5Z" fill="#F0C93A"/>
<path d="M154.5 181.5V174V174V181.5ZM154.5 287.5V295V295V287.5ZM154.5 183.5V176V176V183.5ZM154.5 285.5V293V293V285.5ZM752.579 175.525L760.078 175.624V175.624L752.579 175.525ZM738.501 233.5L741.118 226.471L741.115 226.47L738.501 233.5ZM750.579 175.499L758.078 175.597V175.597L750.579 175.499ZM738.501 113.5L741.106 120.533L741.109 120.532L738.501 113.5ZM524.103 10.6055L517.149 13.414L524.103 10.6055ZM561.984 109.747L568.939 106.938L561.984 109.747ZM737.911 114.792L744.951 112.206L737.911 114.792ZM737.912 232.21L744.948 234.808L737.912 232.21ZM739.786 232.908L746.822 235.506L739.786 232.908ZM739.786 114.095L746.826 111.51L739.786 114.095ZM563.334 107.747L556.38 110.555L563.334 107.747ZM154.5 181.5V189C179.629 189 200 209.371 200 234.5H207.5H215C215 201.087 187.913 174 154.5 174V181.5ZM207.5 234.5H200C200 259.629 179.629 280 154.5 280V287.5V295C187.913 295 215 267.913 215 234.5H207.5ZM154.5 287.5V280C129.371 280 109 259.629 109 234.5H101.5H94C94 267.913 121.087 295 154.5 295V287.5ZM101.5 234.5H109C109 209.371 129.371 189 154.5 189V181.5V174C121.087 174 94 201.087 94 234.5H101.5ZM636.5 181.5V189C661.629 189 682 209.371 682 234.5H689.5H697C697 201.087 669.913 174 636.5 174V181.5ZM689.5 234.5H682C682 259.629 661.629 280 636.5 280V287.5V295C669.913 295 697 267.913 697 234.5H689.5ZM636.5 287.5V280C611.371 280 591 259.629 591 234.5H583.5H576C576 267.913 603.087 295 636.5 295V287.5ZM583.5 234.5H591C591 209.371 611.371 189 636.5 189V181.5V174C603.087 174 576 201.087 576 234.5H583.5ZM154.5 183.5V176C122.191 176 96 202.191 96 234.5H103.5H111C111 210.476 130.476 191 154.5 191V183.5ZM103.5 234.5H96C96 266.809 122.191 293 154.5 293V285.5V278C130.476 278 111 258.524 111 234.5H103.5ZM154.5 285.5V293C186.809 293 213 266.809 213 234.5H205.5H198C198 258.524 178.524 278 154.5 278V285.5ZM205.5 234.5H213C213 202.191 186.809 176 154.5 176V183.5V191C178.524 191 198 210.476 198 234.5H205.5ZM636.5 183.5V176C604.191 176 578 202.191 578 234.5H585.5H593C593 210.476 612.476 191 636.5 191V183.5ZM585.5 234.5H578C578 266.809 604.191 293 636.5 293V285.5V278C612.476 278 593 258.524 593 234.5H585.5ZM636.5 285.5V293C668.809 293 695 266.809 695 234.5H687.5H680C680 258.524 660.524 278 636.5 278V285.5ZM687.5 234.5H695C695 202.191 668.809 176 636.5 176V183.5V191C660.524 191 680 210.476 680 234.5H687.5ZM96.5 235.5V228H19.5V235.5V243H96.5V235.5ZM17.5 233.5V241H96.5V233.5V226H17.5V233.5ZM582.5 235.5V228H212.5V235.5V243H582.5V235.5ZM212.5 233.5V241H582.5V233.5V226H212.5V233.5ZM736.5 235.5V228H690.5V235.5V243H736.5V235.5ZM690.5 233.5V241H736.5V233.5V226H690.5V233.5ZM739.786 114.095L732.746 116.681C741.553 140.663 745.302 158.501 745.08 175.427L752.579 175.525L760.078 175.624C760.334 156.182 755.974 136.421 746.826 111.51L739.786 114.095ZM752.579 175.525L745.08 175.427C744.858 192.34 740.666 208.873 732.75 230.31L739.786 232.908L746.822 235.506C754.981 213.409 759.824 195.02 760.078 175.624L752.579 175.525ZM737.912 232.21L744.948 234.808C753.074 212.801 757.828 194.661 758.078 175.597L750.579 175.499L743.08 175.401C742.862 191.981 738.759 208.266 730.877 229.612L737.912 232.21ZM750.579 175.499L758.078 175.597C758.329 156.492 754.052 136.99 744.951 112.206L737.911 114.792L730.87 117.377C739.63 141.233 743.297 158.812 743.08 175.401L750.579 175.499ZM15.5 231.5H23V115.5H15.5H8V231.5H15.5ZM17.5 113.5H10V233.5H17.5H25V113.5H17.5ZM283.5 113.5V106H17.5V113.5V121H283.5V113.5ZM19.5 111.5V119H281.5V111.5V104H19.5V111.5ZM287.5 105.5H295V11.5H287.5H280V105.5H287.5ZM289.5 9.5H282V107.5H289.5H297V9.5H289.5ZM568.897 111.5V119H736.5V111.5V104H568.897V111.5ZM736.5 113.5V106H567.548V113.5V121H736.5V113.5ZM561.984 109.747L568.939 106.938L528.454 6.69153L521.5 9.5L514.546 12.3085L555.03 112.555L561.984 109.747ZM524.103 10.6055L517.149 13.414L556.38 110.555L563.334 107.747L570.288 104.938L531.058 7.79701L524.103 10.6055ZM521.5 9.5V2H289.5V9.5V17H521.5V9.5ZM291.5 7.5V15H519.5V7.5V0H291.5V7.5ZM519.5 7.5V15C516.462 15 514 12.5376 514 9.5H521.5H529C529 4.25331 524.747 0 519.5 0V7.5ZM289.5 9.5H297C297 12.5376 294.538 15 291.5 15V7.5V0C286.253 0 282 4.25329 282 9.5H289.5ZM521.5 9.5L524.309 16.4542C521.492 17.5918 518.287 16.2306 517.149 13.414L524.103 10.6055L531.058 7.79701C529.093 2.93193 523.556 0.58085 518.691 2.54581L521.5 9.5ZM567.548 113.5V106C568.159 106 568.71 106.371 568.939 106.938L561.984 109.747L555.03 112.555C557.091 117.659 562.044 121 567.548 121V113.5ZM737.5 112.5H730C730 108.91 732.91 106 736.5 106V113.5V121C741.194 121 745 117.194 745 112.5H737.5ZM281.5 111.5V119C288.956 119 295 112.956 295 105.5H287.5H280C280 104.672 280.672 104 281.5 104V111.5ZM15.5 115.5H23C23 118.538 20.5376 121 17.5 121V113.5V106C12.2533 106 8 110.253 8 115.5H15.5ZM17.5 233.5V226C20.5376 226 23 228.462 23 231.5H15.5H8C8 236.747 12.2533 241 17.5 241V233.5ZM737.911 114.792L744.951 112.206C746.163 115.509 744.523 119.267 741.106 120.533L738.501 113.5L735.896 106.467C731.442 108.117 729.276 113.037 730.87 117.377L737.911 114.792ZM738.501 233.5L741.115 226.47C744.52 227.737 746.172 231.494 744.948 234.808L737.912 232.21L730.877 229.612C729.27 233.962 731.446 238.878 735.887 240.53L738.501 233.5ZM739.786 232.908L732.75 230.31C733.987 226.96 737.72 225.206 741.118 226.471L738.501 233.5L735.884 240.529C740.316 242.179 745.203 239.891 746.822 235.506L739.786 232.908ZM739.786 114.095L746.826 111.51C745.218 107.129 740.338 104.82 735.893 106.468L738.501 113.5L741.109 120.532C737.7 121.796 733.974 120.025 732.746 116.681L739.786 114.095ZM689.5 234.5H697C697 238.09 694.09 241 690.5 241V233.5V226C685.806 226 682 229.806 682 234.5H689.5ZM690.5 235.5V228C694.09 228 697 230.91 697 234.5H689.5H682C682 239.194 685.806 243 690.5 243V235.5ZM736.5 235.5V243C741.194 243 745 239.194 745 234.5H737.5H730C730 230.91 732.91 228 736.5 228V235.5ZM582.5 233.5V241C578.91 241 576 238.09 576 234.5H583.5H591C591 229.806 587.194 226 582.5 226V233.5ZM736.5 111.5V119C732.91 119 730 116.09 730 112.5H737.5H745C745 107.806 741.194 104 736.5 104V111.5ZM211.5 234.5H219C219 238.09 216.09 241 212.5 241V233.5V226C207.806 226 204 229.806 204 234.5H211.5ZM582.5 235.5V243C587.194 243 591 239.194 591 234.5H583.5H576C576 230.91 578.91 228 582.5 228V235.5ZM287.5 11.5H295C295 14.5376 292.538 17 289.5 17V9.5V2C284.253 2 280 6.25329 280 11.5H287.5ZM96.5 233.5V241C92.9101 241 90 238.09 90 234.5H97.5H105C105 229.806 101.194 226 96.5 226V233.5ZM17.5 113.5H25C25 116.538 22.5376 119 19.5 119V111.5V104C14.2533 104 10 108.253 10 113.5H17.5ZM19.5 235.5V228C22.5376 228 25 230.462 25 233.5H17.5H10C10 238.747 14.2533 243 19.5 243V235.5ZM568.897 111.5V104C569.509 104 570.059 104.371 570.288 104.938L563.334 107.747L556.38 110.555C558.441 115.659 563.393 119 568.897 119V111.5ZM212.5 235.5V228C216.09 228 219 230.91 219 234.5H211.5H204C204 239.194 207.806 243 212.5 243V235.5ZM736.5 233.5V241C732.91 241 730 238.09 730 234.5H737.5H745C745 229.806 741.194 226 736.5 226V233.5ZM283.5 113.5V121C290.956 121 297 114.956 297 107.5H289.5H282C282 106.672 282.672 106 283.5 106V113.5ZM96.5 235.5V243C101.194 243 105 239.194 105 234.5H97.5H90C90 230.91 92.9101 228 96.5 228V235.5Z" fill="#F0C93A"/>
</g>
<defs>
<filter id="filter0_d_4_2" x="0" y="0" width="768.089" height="311" filterUnits="userSpaceOnUse" color-interpolation-filters="sRGB">
<feFlood flood-opacity="0" result="BackgroundImageFix"/>
<feColorMatrix in="SourceAlpha" type="matrix" values="0 0 0 0 0 0 0 0 0 0 0 0 0 0 0 0 0 0 127 0" result="hardAlpha"/>
<feOffset dy="8"/>
<feGaussianBlur stdDeviation="4"/>
<feComposite in2="hardAlpha" operator="out"/>
<feColorMatrix type="matrix" values="0 0 0 0 0 0 0 0 0 0 0 0 0 0 0 0 0 0 0.25 0"/>
<feBlend mode="normal" in2="BackgroundImageFix" result="effect1_dropShadow_4_2"/>
<feBlend mode="normal" in="SourceGraphic" in2="effect1_dropShadow_4_2" result="shape"/>
</filter>
</defs>
</svg>
